IKResults
version=1
nRows=9
nColumns=63
inDegrees=yes

Units are S.I. units (second, meters, Newtons, ...)
If the header above contains a line with 'inDegrees', this indicates whether rotational values are in degrees (yes) or radians (no).

endheader
time	pelvis_tilt	pelvis_list	pelvis_rotation	pelvis_tx	pelvis_ty	pelvis_tz	hip_flexion_r	hip_adduction_r	hip_rotation_r	knee_angle_r	knee_angle_r_beta	ankle_angle_r	subtalar_angle_r	mtp_angle_r	hip_flexion_l	hip_adduction_l	hip_rotation_l	knee_angle_l	knee_angle_l_beta	ankle_angle_l	subtalar_angle_l	mtp_angle_l	L5_S1_Flex_Ext	L5_S1_Lat_Bending	L5_S1_axial_rotation	L4_L5_Flex_Ext	L4_L5_Lat_Bending	L4_L5_axial_rotation	L3_L4_Flex_Ext	L3_L4_Lat_Bending	L3_L4_axial_rotation	L2_L3_Flex_Ext	L2_L3_Lat_Bending	L2_L3_axial_rotation	L1_L2_Flex_Ext	L1_L2_Lat_Bending	L1_L2_axial_rotation	L1_T12_Flex_Ext	L1_T12_Lat_Bending	L1_T12_axial_rotation	Abs_r3	Abs_r2	Abs_r1	Abs_t1	Abs_t2	neck_flexion	neck_bending	neck_rotation	arm_flex_r	arm_add_r	arm_rot_r	elbow_flex_r	pro_sup_r	wrist_flex_r	wrist_dev_r	arm_flex_l	arm_add_l	arm_rot_l	elbow_flex_l	pro_sup_l	wrist_flex_l	wrist_dev_l
      6.03333333	     -6.36690385	      5.74830472	    -35.79611784	     -0.59037114	      0.93056369	     -0.60856881	      1.41744392	     -5.60310278	     -4.96538494	      2.67752869	      0.04673169	     19.41080811	    -13.81387753	      0.00000000	      5.48060812	     -6.21883901	    -11.05575604	      9.68011075	      0.16894980	     18.56807437	     -8.34707055	      0.00000000	      0.83049571	     -0.35997752	      1.51205991	      1.54231358	     -0.47877010	      1.60656366	      1.36442140	     -0.87524933	      1.60656366	      0.94917355	     -0.87524933	      1.32305243	      0.77119832	     -0.73406615	      1.22854868	      0.47454525	     -0.55760517	      1.13404494	      5.93214781	     -4.07213766	      8.40962363	      0.00000000	      0.00000000	     24.64960441	      0.66160319	    -12.44442360	     -4.93278054	      0.78820429	    -69.06198364	     18.05657630	     89.99559364	      0.00000000	      0.00000000	     -0.13474261	    -13.36632802	      9.74581568	     24.71096907	     89.99559364	      0.00000000	      0.00000000
      6.06666667	     -6.45592481	      5.85698632	    -36.07475458	     -0.59090283	      0.93027173	     -0.60927473	      1.54334812	     -5.72155635	     -6.89629113	      2.41518329	      0.04215290	     20.46336663	    -10.12607827	      0.00000000	      5.64858753	     -6.11185085	    -10.94357831	      9.71630936	      0.16958159	     18.30485013	     -9.18436046	      0.00000000	      0.82851368	     -0.35823678	      1.61188014	      1.53863276	     -0.47645492	      1.71262264	      1.36116513	     -0.87101692	      1.71262264	      0.94690829	     -0.87101692	      1.41039512	      0.76935781	     -0.73051645	      1.30965261	      0.47341272	     -0.55490878	      1.20891010	      5.91799038	     -4.05244615	      8.96479375	      0.00000000	      0.00000000	     25.13882581	      0.52697609	    -12.49820873	     -7.02450183	     -0.88117118	    -50.99965135	     18.58353740	     89.99559364	      0.00000000	      0.00000000	      0.02593683	    -13.04704682	      8.51791746	     24.82679503	     89.99559364	      0.00000000	      0.00000000
      6.10000000	     -6.44663200	      5.84693565	    -36.09654574	     -0.59105948	      0.93027529	     -0.60943697	      1.57116604	     -5.71326138	     -6.88920027	      2.46118899	      0.04295585	     20.47721945	    -10.10296766	      0.00000000	      5.63861529	     -6.10144880	    -10.94047631	      9.73611424	      0.16992725	     18.29593650	     -9.16690155	      0.00000000	      0.82481679	     -0.35697248	      1.60690702	      1.53176726	     -0.47477340	      1.70733871	      1.35509150	     -0.86794289	      1.70733871	      0.94268311	     -0.86794289	      1.40604364	      0.76592487	     -0.72793828	      1.30561195	      0.47130031	     -0.55295037	      1.20518026	      5.89158384	     -4.03814410	      8.93713477	      0.00000000	      0.00000000	     25.06246957	      0.52656492	    -12.49338901	     -7.06821568	     -0.89666012	    -51.00118187	     18.60818300	     89.99559364	      0.00000000	      0.00000000	      0.06235318	    -13.06845622	      8.51075366	     24.83932504	     89.99559364	      0.00000000	      0.00000000
      6.13333333	     -6.50317300	      5.92272601	    -36.18076193	     -0.59199574	      0.93008634	     -0.60987761	      1.53917197	     -5.70469484	     -6.71027803	      2.00867940	      0.03505807	     20.48914962	     -9.88323841	      0.00000000	      5.88379647	     -6.10479891	    -11.03479543	      9.94211004	      0.17352255	     18.22998299	     -9.24573474	      0.00000000	      0.81696254	     -0.35926073	      1.63291926	      1.51718113	     -0.47781677	      1.73497672	      1.34218775	     -0.87350653	      1.73497672	      0.93370648	     -0.87350653	      1.42880435	      0.75863141	     -0.73260447	      1.32674690	      0.46681239	     -0.55649487	      1.22468945	      5.83548171	     -4.06402919	      9.08180706	      0.00000000	      0.00000000	     25.44843343	      0.42532368	    -12.43626941	     -7.23966626	     -0.79140042	    -50.80482167	     19.31740479	     89.99559364	      0.00000000	      0.00000000	      0.25154223	    -13.10275215	      8.40453525	     24.96014200	     89.99559364	      0.00000000	      0.00000000
      6.16666667	     -6.49885136	      5.91078057	    -36.20343949	     -0.59208050	      0.93012712	     -0.61002620	      1.57224832	     -5.69622307	     -6.70507913	      2.06510887	      0.03604295	     20.50566512	     -9.86320196	      0.00000000	      5.87238287	     -6.09991339	    -11.03034253	      9.96312203	      0.17388928	     18.22858903	     -9.22871595	      0.00000000	      0.81461705	     -0.35693023	      1.62890666	      1.51282533	     -0.47471720	      1.73071333	      1.33833436	     -0.86784016	      1.73071333	      0.93102583	     -0.86784016	      1.42529333	      0.75645340	     -0.72785212	      1.32348666	      0.46547218	     -0.55288492	      1.22168000	      5.81872815	     -4.03766613	      9.05949018	      0.00000000	      0.00000000	     25.36280880	      0.42572207	    -12.43204479	     -7.27912349	     -0.80901502	    -50.80014032	     19.34425063	     89.99559364	      0.00000000	      0.00000000	      0.29976380	    -13.13467689	      8.39099156	     24.97392097	     89.99559364	      0.00000000	      0.00000000
      6.20000000	     -6.50439491	      5.97487658	    -36.36671083	     -0.59265361	      0.92995411	     -0.61032668	      1.52104019	     -5.72601441	     -6.47171526	      1.69575408	      0.02959649	     20.52505843	     -9.73564218	      0.00000000	      6.09093114	     -6.09420877	    -11.11388247	     10.32400439	      0.18018787	     18.36752364	     -9.33074922	      0.00000000	      0.80657235	     -0.35870497	      1.67973604	      1.49788551	     -0.47707761	      1.78471954	      1.32511771	     -0.87215526	      1.78471954	      0.92183154	     -0.87215526	      1.46976903	      0.74898308	     -0.73147117	      1.36478553	      0.46087544	     -0.55563400	      1.25980203	      5.76126563	     -4.05774234	      9.34218793	      0.00000000	      0.00000000	     25.58136713	      0.30437968	    -12.39512076	     -7.56932291	     -0.72551678	    -50.34233887	     20.18355454	     89.99559364	      0.00000000	      0.00000000	      0.44854512	    -13.13966953	      8.07788135	     25.18848125	     89.99559364	      0.00000000	      0.00000000
      6.23333333	     -6.50808899	      5.97124837	    -36.37772423	     -0.59257418	      0.92998721	     -0.61040179	      1.53725805	     -5.73011677	     -6.46525541	      1.73057645	      0.03020426	     20.54269436	     -9.72696158	      0.00000000	      6.08548845	     -6.09304215	    -11.11332344	     10.33641937	      0.18040455	     18.36435732	     -9.32101876	      0.00000000	      0.80906997	     -0.35557887	      1.67833098	      1.50252383	     -0.47291989	      1.78322667	      1.32922105	     -0.86455445	      1.78322667	      0.92468606	     -0.86455445	      1.46853961	      0.75130237	     -0.72509642	      1.36364392	      0.46230258	     -0.55079166	      1.25874824	      5.77910586	     -4.02237924	      9.33437343	      0.00000000	      0.00000000	     25.53180368	      0.30274548	    -12.39154052	     -7.58864649	     -0.74202691	    -50.33215978	     20.19462806	     89.99559364	      0.00000000	      0.00000000	      0.50673765	    -13.18070414	      8.05592957	     25.20010616	     89.99559364	      0.00000000	      0.00000000
      6.26666667	     -6.51280350	      5.96904436	    -36.38572435	     -0.59246108	      0.92998016	     -0.61050009	      1.54933944	     -5.74287731	     -6.45592403	      1.76300957	      0.03077032	     20.56588579	     -9.71745292	      0.00000000	      6.09157438	     -6.09361583	    -11.11502742	     10.35708747	      0.18076528	     18.36968928	     -9.31041992	      0.00000000	      0.81206876	     -0.35277498	      1.68047566	      1.50809290	     -0.46919073	      1.78550539	      1.33414777	     -0.85773709	      1.78550539	      0.92811339	     -0.85773709	      1.47041620	      0.75408705	     -0.71937875	      1.36538647	      0.46401609	     -0.54644845	      1.26035675	      5.80052597	     -3.99066116	      9.34630148	      0.00000000	      0.00000000	     25.47319306	      0.29730272	    -12.38329905	     -7.60520342	     -0.76752962	    -50.32094620	     20.20719530	     89.99559364	      0.00000000	      0.00000000	      0.57812509	    -13.23383944	      8.02427867	     25.22182478	     89.99559364	      0.00000000	      0.00000000
      6.30000000	     -6.45541445	      6.32162482	    -37.57324308	     -0.59256885	      0.92965446	     -0.60971768	      1.86797727	     -6.09773403	     -4.17785000	      1.60893070	      0.02808114	     20.09638639	    -11.27148865	      0.00000000	      6.03849085	     -5.90998484	    -13.18234693	     10.50998809	      0.18343390	     18.86365754	     -8.10046050	      0.00000000	      0.84891520	     -0.37408288	      1.89977094	      1.57652042	     -0.49753023	      2.01850662	      1.39468278	     -0.90954511	      2.01850662	      0.97022518	     -0.90954511	      1.66229957	      0.78830265	     -0.76282980	      1.54356389	      0.48507015	     -0.57945438	      1.42482820	      6.06371638	     -4.23170033	     10.56595603	      0.00000000	      0.00000000	     25.41998417	      0.22828969	    -12.38460959	     -8.15081973	     -1.45383479	    -45.25281639	     20.12326462	     89.99559364	      0.00000000	      0.00000000	     -0.08229534	    -12.12039268	      0.71982824	     26.08592143	     89.99559364	      0.00000000	      0.00000000
